<svg xmlns="http://www.w3.org/2000/svg" xmlns:xlink="http://www.w3.org/1999/xlink" width="40" height="40" fill="none" xmlns:v="https://vecta.io/nano"><use xlink:href="#G" fill="url(#D)"/><mask id="A" mask-type="alpha" maskUnits="userSpaceOnUse" x="0" y="0" width="40" height="40"><use xlink:href="#G" fill="url(#E)"/></mask><g mask="url(#A)"><g filter="url(#C)"><ellipse cx="18" cy="24" rx="17" ry="18" fill="url(#F)"/></g></g><mask id="B" mask-type="alpha" maskUnits="userSpaceOnUse" x="0" y="0" width="40" height="40"><use xlink:href="#G" fill="#aa30bf"/></mask><g mask="url(#B)"><path d="M20.002 8l-4.948.073c-1.277.058-2.149.261-2.912.557-.789.306-1.459.716-2.126 1.384a5.89 5.89 0 0 0-1.385 2.125c-.297.763-.5 1.636-.557 2.912l-.072 4.948.072 4.947c.059 1.277.261 2.149.557 2.913a5.88 5.88 0 0 0 1.384 2.126c.667.668 1.336 1.079 2.125 1.385.763.297 1.636.499 2.913.558l4.947.073 4.947-.073c1.277-.059 2.15-.261 2.914-.558a5.87 5.87 0 0 0 2.124-1.385 5.89 5.89 0 0 0 1.385-2.125c.295-.763.498-1.636.558-2.912l.073-4.947-.073-4.948c-.06-1.277-.262-2.149-.558-2.912a5.89 5.89 0 0 0-1.385-2.126c-.668-.667-1.335-1.077-2.125-1.384-.765-.297-1.638-.499-2.915-.557L19.998 8zm-1.076 2.163h1.076l4.849.069c1.17.054 1.805.249 2.228.413a3.71 3.71 0 0 1 1.379.897c.42.42.68.82.898 1.38.164.422.36 1.057.413 2.227l.07 4.847-.07 4.848c-.054 1.17-.249 1.805-.413 2.228a3.71 3.71 0 0 1-.898 1.378 3.71 3.71 0 0 1-1.379.898c-.422.165-1.058.36-2.228.413l-4.849.07c-3.204 0-3.584-.012-4.849-.07-1.17-.054-1.805-.25-2.228-.414-.56-.218-.96-.478-1.38-.898a3.72 3.72 0 0 1-.898-1.379c-.164-.422-.36-1.058-.413-2.227l-.069-4.849.069-4.848c.054-1.17.249-1.805.413-2.228.218-.56.478-.96.898-1.38s.82-.68 1.38-.898c.423-.165 1.058-.36 2.228-.414l3.772-.067v.003zm7.482 1.992a1.44 1.44 0 0 0-1.44 1.44 1.44 1.44 0 0 0 2.88 0 1.44 1.44 0 0 0-1.44-1.44v.001zm-6.405 1.682c-3.403 0-6.162 2.759-6.162 6.163s2.759 6.161 6.163 6.161a6.16 6.16 0 0 0 6.162-6.161c0-3.403-2.758-6.162-6.162-6.162h0zm0 2.162a4 4 0 1 1 0 8 4 4 0 1 1 0-8z" fill="#fff"/></g><defs><filter id="C" x="-5" y="0" width="46" height="48" filterUnits="userSpaceOnUse" color-interpolation-filters="sRGB"><feFlood flood-opacity="0"/><feBlend in="SourceGraphic"/><feGaussianBlur stdDeviation="3"/></filter><radialGradient id="D" cx="0" cy="0" r="1" gradientUnits="userSpaceOnUse" gradientTransform="translate(9 7.5) rotate(21.9606) scale(33.4253 60.0215)"><stop stop-color="#4466ca"/><stop offset="1" stop-color="#d03c9e"/></radialGradient><radialGradient id="E" cx="0" cy="0" r="1" gradientUnits="userSpaceOnUse" gradientTransform="matrix(31.000001585519225,12.500023271490559,-22.446175405748658,55.66641421812945,9,7.5)"><stop stop-color="#4466ca"/><stop offset="1" stop-color="#d03c9e"/></radialGradient><linearGradient id="F" x1="23.5" y1="12" x2="12.372" y2="35.465" gradientUnits="userSpaceOnUse"><stop stop-color="#f04e5d"/><stop offset=".45" stop-color="#fe5d40"/><stop offset="1" stop-color="#ffd352"/></linearGradient><path id="G" d="M0 20C0 8.954 8.954 0 20 0s20 8.954 20 20-8.954 20-20 20S0 31.046 0 20z"/></defs></svg>