<svg xmlns="http://www.w3.org/2000/svg" width="40" height="40" fill="none"  xmlns:v="https://vecta.io/nano"><path d="M0 20C0 8.954 8.954 0 20 0s20 8.954 20 20-8.954 20-20 20S0 31.046 0 20z" fill="#55acee"/><path d="M19.401 16.257l.042.692-.7-.085c-2.546-.325-4.77-1.426-6.659-3.277l-.923-.918-.238.678c-.504 1.511-.182 3.107.867 4.18.56.593.434.678-.532.325-.336-.113-.63-.198-.658-.155-.098.099.238 1.384.504 1.893.364.706 1.105 1.398 1.917 1.808l.685.325-.811.014c-.783 0-.811.014-.727.311.28.918 1.385 1.893 2.616 2.316l.867.296-.755.452c-1.119.65-2.434 1.017-3.749 1.045-.63.014-1.147.071-1.147.113 0 .141 1.707.932 2.7 1.243 2.98.918 6.519.522 9.177-1.045 1.889-1.116 3.777-3.333 4.659-5.48.476-1.144.951-3.234.951-4.237 0-.65.042-.735.825-1.511.462-.452.895-.946.979-1.088.14-.268.126-.268-.587-.028-1.189.424-1.357.367-.77-.268.434-.452.951-1.271.951-1.511 0-.042-.21.028-.448.155-.252.141-.811.353-1.231.48l-.755.24-.685-.466c-.378-.254-.909-.537-1.189-.621-.713-.198-1.805-.169-2.448.056-1.749.636-2.854 2.274-2.728 4.067z" fill="#fff"/></svg>